<svg width="40" height="39" viewBox="0 0 40 39" fill="none" xmlns="http://www.w3.org/2000/svg">
<circle cx="19.7756" cy="19.7136" r="19.2536" fill="white"/>
<path fill-rule="evenodd" clip-rule="evenodd" d="M25.2532 12.9145C25.4751 12.8225 25.7181 12.7907 25.9567 12.8226C26.1953 12.8544 26.4209 12.9488 26.61 13.0957C26.799 13.2427 26.9447 13.437 27.0318 13.6583C27.1189 13.8796 27.1442 14.1198 27.1051 14.354L25.0682 26.5331C24.8706 27.7079 23.563 28.3816 22.47 27.7964C21.5557 27.3069 20.1978 26.5526 18.9764 25.7656C18.3657 25.3716 16.4949 24.11 16.7249 23.2123C16.9224 22.4448 20.0658 19.5605 21.862 17.8457C22.567 17.1719 22.2455 16.7833 21.4129 17.403C19.3455 18.9417 16.0261 21.2815 14.9287 21.9402C13.9605 22.5209 13.4558 22.6201 12.8523 22.5209C11.7512 22.3403 10.7301 22.0606 9.89662 21.7197C8.7704 21.2594 8.82519 19.7331 9.89572 19.2887L25.2532 12.9145Z" fill="black"/>
</svg>
