<svg width="40" height="39" viewBox="0 0 40 39" fill="none" xmlns="http://www.w3.org/2000/svg">
<circle cx="19.761" cy="19.7136" r="19.2536" fill="white"/>
<path d="M27.4611 9.94531H12.9974C11.861 9.94531 10.9312 10.8751 10.9312 12.0116V26.4753C10.9312 27.6127 11.861 28.5415 12.9974 28.5415H20.2292V21.3097H18.163V18.7527H20.2292V16.6348C20.2292 14.3991 21.4814 12.8288 24.12 12.8288L25.9827 12.8308V15.5221H24.7461C23.7191 15.5221 23.3286 16.2928 23.3286 17.0077V18.7537H25.9817L25.3949 21.3097H23.3286V28.5415H27.4611C28.5975 28.5415 29.5273 27.6127 29.5273 26.4753V12.0116C29.5273 10.8751 28.5975 9.94531 27.4611 9.94531Z" fill="#151515"/>
</svg>
