<svg width="39" height="39" viewBox="0 0 39 39" fill="none" xmlns="http://www.w3.org/2000/svg">
<circle cx="19.2536" cy="19.7136" r="19.2536" fill="white"/>
<path d="M20.6872 9.85321C21.3725 9.85058 22.0579 9.85746 22.7431 9.87387L22.9253 9.88044C23.1357 9.88796 23.3432 9.89735 23.594 9.90862C24.5933 9.95558 25.2752 10.1134 25.8734 10.3453C26.4933 10.5839 27.0155 10.907 27.5377 11.4292C28.0152 11.8984 28.3847 12.466 28.6206 13.0925C28.8526 13.6908 29.0104 14.3736 29.0573 15.3729C29.0686 15.6227 29.078 15.8312 29.0855 16.0416L29.0911 16.2238C29.1078 16.9087 29.115 17.5937 29.1127 18.2788L29.1137 18.9794V20.2098C29.116 20.8952 29.1088 21.5805 29.0921 22.2657L29.0864 22.4479C29.0789 22.6583 29.0695 22.8658 29.0583 23.1166C29.0113 24.1159 28.8516 24.7978 28.6206 25.3961C28.3855 26.0232 28.0158 26.5913 27.5377 27.0603C27.0681 27.5377 26.5002 27.9073 25.8734 28.1432C25.2752 28.3752 24.5933 28.533 23.594 28.58C23.3432 28.5912 23.1357 28.6006 22.9253 28.6081L22.7431 28.6138C22.0579 28.6305 21.3725 28.6377 20.6872 28.6354L19.9865 28.6363H18.7571C18.0717 28.6386 17.3864 28.6314 16.7012 28.6147L16.519 28.6091C16.296 28.601 16.0731 28.5916 15.8503 28.5809C14.851 28.5339 14.1691 28.3743 13.5699 28.1432C12.9431 27.9078 12.3754 27.5382 11.9066 27.0603C11.4286 26.591 11.0587 26.023 10.8227 25.3961C10.5907 24.7978 10.433 24.1159 10.386 23.1166C10.3755 22.8938 10.3661 22.6709 10.3578 22.4479L10.3531 22.2657C10.3358 21.5805 10.328 20.8952 10.3296 20.2098V18.2788C10.327 17.5937 10.3339 16.9087 10.3503 16.2238L10.3569 16.0416C10.3644 15.8312 10.3738 15.6227 10.3851 15.3729C10.432 14.3726 10.5898 13.6917 10.8218 13.0925C11.0579 12.4657 11.4285 11.8983 11.9075 11.4301C12.3761 10.9518 12.9434 10.5816 13.5699 10.3453C14.1691 10.1134 14.85 9.95558 15.8503 9.90862L16.519 9.88044L16.7012 9.87575C17.386 9.85844 18.0711 9.85061 18.7562 9.85227L20.6872 9.85321ZM19.7217 14.5492C19.0994 14.5404 18.4817 14.6554 17.9043 14.8874C17.3269 15.1194 16.8014 15.4639 16.3582 15.9008C15.9151 16.3377 15.5633 16.8583 15.3231 17.4323C15.0829 18.0064 14.9592 18.6225 14.9592 19.2448C14.9592 19.867 15.0829 20.4831 15.3231 21.0572C15.5633 21.6312 15.9151 22.1518 16.3582 22.5887C16.8014 23.0256 17.3269 23.3701 17.9043 23.6021C18.4817 23.8341 19.0994 23.9491 19.7217 23.9403C20.9671 23.9403 22.1616 23.4455 23.0422 22.5649C23.9229 21.6842 24.4177 20.4897 24.4177 19.2443C24.4177 17.9988 23.9229 16.8044 23.0422 15.9237C22.1616 15.043 20.9671 14.5492 19.7217 14.5492ZM19.7217 16.4276C20.0959 16.4207 20.4678 16.4885 20.8156 16.6269C21.1634 16.7654 21.4802 16.9717 21.7473 17.234C22.0145 17.4962 22.2267 17.809 22.3716 18.1542C22.5165 18.4994 22.5911 18.8699 22.5912 19.2443C22.5912 19.6186 22.5167 19.9892 22.3719 20.3344C22.2272 20.6796 22.015 20.9926 21.748 21.2549C21.4809 21.5172 21.1643 21.7237 20.8165 21.8622C20.4688 22.0008 20.0969 22.0687 19.7226 22.0619C18.9753 22.0619 18.2587 21.765 17.7303 21.2366C17.2018 20.7082 16.905 19.9916 16.905 19.2443C16.905 18.497 17.2018 17.7803 17.7303 17.2519C18.2587 16.7235 18.9753 16.4267 19.7226 16.4267L19.7217 16.4276ZM24.6525 13.1404C24.3495 13.1525 24.0629 13.2814 23.8528 13.5001C23.6428 13.7188 23.5254 14.0102 23.5254 14.3135C23.5254 14.6167 23.6428 14.9082 23.8528 15.1269C24.0629 15.3455 24.3495 15.4744 24.6525 15.4865C24.9638 15.4865 25.2625 15.3629 25.4826 15.1427C25.7028 14.9225 25.8265 14.6239 25.8265 14.3125C25.8265 14.0012 25.7028 13.7026 25.4826 13.4824C25.2625 13.2622 24.9638 13.1385 24.6525 13.1385V13.1404Z" fill="#151515"/>
</svg>
