<svg width="25" height="25" viewBox="0 0 25 25" fill="none" xmlns="http://www.w3.org/2000/svg">
<path d="M12.5 10.4167C12.9788 10.4167 13.4529 10.3224 13.8952 10.1391C14.3375 9.95592 14.7394 9.68737 15.078 9.34883C15.4165 9.01028 15.6851 8.60837 15.8683 8.16603C16.0515 7.7237 16.1458 7.24961 16.1458 6.77083C16.1458 6.29206 16.0515 5.81797 15.8683 5.37563C15.6851 4.9333 15.4165 4.53139 15.078 4.19284C14.7394 3.85429 14.3375 3.58574 13.8952 3.40252C13.4529 3.2193 12.9788 3.125 12.5 3.125C11.5331 3.125 10.6057 3.50911 9.92201 4.19284C9.23828 4.87657 8.85417 5.8039 8.85417 6.77083C8.85417 7.73777 9.23828 8.6651 9.92201 9.34883C10.6057 10.0326 11.5331 10.4167 12.5 10.4167ZM5.125 21.25V21.875H19.875V21.25C19.875 18.9167 19.875 17.75 19.4208 16.8583C19.0214 16.0744 18.384 15.437 17.6 15.0375C16.7083 14.5833 15.5417 14.5833 13.2083 14.5833H11.7917C9.45833 14.5833 8.29167 14.5833 7.4 15.0375C6.61603 15.437 5.97863 16.0744 5.57917 16.8583C5.125 17.75 5.125 18.9167 5.125 21.25Z" fill="white" stroke="white" stroke-width="4" stroke-linecap="round" stroke-linejoin="round"/>
</svg>
