<svg width="39" height="39" viewBox="0 0 39 39" fill="none" xmlns="http://www.w3.org/2000/svg">
<circle cx="19.2683" cy="19.7136" r="19.2536" fill="white"/>
<path fill-rule="evenodd" clip-rule="evenodd" d="M19.9964 9.01025C14.487 9.01025 10.021 13.4762 10.021 18.9856C10.021 20.871 10.5447 22.6366 11.4555 24.1409L10.5657 27.1654C10.5146 27.3391 10.5112 27.5233 10.5559 27.6987C10.6006 27.8741 10.6918 28.0342 10.8198 28.1622C10.9478 28.2902 11.1079 28.3814 11.2833 28.4261C11.4587 28.4708 11.6429 28.4674 11.8166 28.4163L14.8411 27.5265C16.3959 28.4673 18.1791 28.9635 19.9964 28.961C25.5058 28.961 29.9718 24.495 29.9718 18.9856C29.9718 13.4762 25.5058 9.01025 19.9964 9.01025ZM17.7399 21.2431C19.758 23.2601 21.6842 23.5264 22.3645 23.5514C23.399 23.5893 24.4065 22.7992 24.7985 21.8825C24.848 21.7684 24.866 21.6432 24.8505 21.5198C24.8351 21.3965 24.7868 21.2795 24.7107 21.1812C24.1641 20.4829 23.4249 19.9812 22.7027 19.4824C22.5519 19.3781 22.3666 19.3363 22.1856 19.3657C22.0047 19.3951 21.8421 19.4934 21.7321 19.64L21.1336 20.5528C21.1021 20.6018 21.0531 20.637 20.9965 20.6511C20.9399 20.6652 20.8801 20.6571 20.8293 20.6286C20.4233 20.3961 19.8318 20.0011 19.4068 19.5762C18.9819 19.1512 18.6108 18.5866 18.4023 18.2066C18.3765 18.1583 18.369 18.1022 18.3813 18.0489C18.3936 17.9955 18.4248 17.9484 18.4691 17.9163L19.3909 17.232C19.5224 17.1176 19.6073 16.9588 19.6294 16.7859C19.6514 16.613 19.6092 16.438 19.5106 16.2943C19.0637 15.6399 18.543 14.8079 17.7878 14.2563C17.6904 14.1857 17.5762 14.1416 17.4566 14.1285C17.3369 14.1154 17.216 14.1337 17.1055 14.1815C16.1878 14.5745 15.3937 15.582 15.4316 16.6185C15.4566 17.2988 15.7229 19.225 17.7399 21.2431Z" fill="black"/>
</svg>
